<mxfile host="app.diagrams.net" modified="2022-10-05T15:56:25.678Z" agent="5.0 (Windows NT 10.0; Win64; x64) AppleWebKit/537.36 (KHTML, like Gecko) Chrome/104.0.5112.102 Safari/537.36 OPR/90.0.4480.84" etag="kBpGwTxE05lSFvHYBllw" version="20.4.0" type="github">
  <diagram name="Page-1" id="9f46799a-70d6-7492-0946-bef42562c5a5">
    <mxGraphModel dx="375" dy="393" grid="1" gridSize="10" guides="1" tooltips="1" connect="1" arrows="1" fold="1" page="1" pageScale="1" pageWidth="1100" pageHeight="850" background="none" math="0" shadow="0">
      <root>
        <mxCell id="0" />
        <mxCell id="1" parent="0" />
        <mxCell id="fPjhyMpD60TTYnaPJ0RA-2" value="Çalışan" style="swimlane;fontStyle=1;align=center;verticalAlign=top;childLayout=stackLayout;horizontal=1;startSize=20;horizontalStack=0;resizeParent=1;resizeParentMax=0;resizeLast=0;collapsible=1;marginBottom=0;" vertex="1" parent="1">
          <mxGeometry x="670" y="230" width="160" height="28" as="geometry" />
        </mxCell>
        <mxCell id="fPjhyMpD60TTYnaPJ0RA-4" value="" style="line;strokeWidth=1;fillColor=none;align=left;verticalAlign=middle;spacingTop=-1;spacingLeft=3;spacingRight=3;rotatable=0;labelPosition=right;points=[];portConstraint=eastwest;strokeColor=inherit;" vertex="1" parent="fPjhyMpD60TTYnaPJ0RA-2">
          <mxGeometry y="20" width="160" height="8" as="geometry" />
        </mxCell>
        <mxCell id="fPjhyMpD60TTYnaPJ0RA-6" value="Çalışma Ofisi" style="swimlane;fontStyle=1;align=center;verticalAlign=top;childLayout=stackLayout;horizontal=1;startSize=26;horizontalStack=0;resizeParent=1;resizeParentMax=0;resizeLast=0;collapsible=1;marginBottom=0;" vertex="1" parent="1">
          <mxGeometry x="300" y="230" width="160" height="34" as="geometry">
            <mxRectangle x="460" y="160" width="120" height="30" as="alternateBounds" />
          </mxGeometry>
        </mxCell>
        <mxCell id="fPjhyMpD60TTYnaPJ0RA-8" value="" style="line;strokeWidth=1;fillColor=none;align=left;verticalAlign=middle;spacingTop=-1;spacingLeft=3;spacingRight=3;rotatable=0;labelPosition=right;points=[];portConstraint=eastwest;strokeColor=inherit;" vertex="1" parent="fPjhyMpD60TTYnaPJ0RA-6">
          <mxGeometry y="26" width="160" height="8" as="geometry" />
        </mxCell>
        <mxCell id="fPjhyMpD60TTYnaPJ0RA-10" value="Sınıflık" style="swimlane;fontStyle=1;align=center;verticalAlign=top;childLayout=stackLayout;horizontal=1;startSize=26;horizontalStack=0;resizeParent=1;resizeParentMax=0;resizeLast=0;collapsible=1;marginBottom=0;" vertex="1" parent="1">
          <mxGeometry x="120" y="230" width="160" height="34" as="geometry" />
        </mxCell>
        <mxCell id="fPjhyMpD60TTYnaPJ0RA-12" value="" style="line;strokeWidth=1;fillColor=none;align=left;verticalAlign=middle;spacingTop=-1;spacingLeft=3;spacingRight=3;rotatable=0;labelPosition=right;points=[];portConstraint=eastwest;strokeColor=inherit;" vertex="1" parent="fPjhyMpD60TTYnaPJ0RA-10">
          <mxGeometry y="26" width="160" height="8" as="geometry" />
        </mxCell>
        <mxCell id="fPjhyMpD60TTYnaPJ0RA-14" value="Universite" style="swimlane;fontStyle=1;align=center;verticalAlign=top;childLayout=stackLayout;horizontal=1;startSize=26;horizontalStack=0;resizeParent=1;resizeParentMax=0;resizeLast=0;collapsible=1;marginBottom=0;" vertex="1" parent="1">
          <mxGeometry x="370" y="130" width="200" height="30" as="geometry" />
        </mxCell>
        <mxCell id="fPjhyMpD60TTYnaPJ0RA-16" value="" style="line;strokeWidth=1;fillColor=none;align=left;verticalAlign=middle;spacingTop=-1;spacingLeft=3;spacingRight=3;rotatable=0;labelPosition=right;points=[];portConstraint=eastwest;strokeColor=inherit;" vertex="1" parent="fPjhyMpD60TTYnaPJ0RA-14">
          <mxGeometry y="26" width="200" height="4" as="geometry" />
        </mxCell>
        <mxCell id="fPjhyMpD60TTYnaPJ0RA-32" value="Ofis" style="swimlane;fontStyle=1;align=center;verticalAlign=top;childLayout=stackLayout;horizontal=1;startSize=26;horizontalStack=0;resizeParent=1;resizeParentMax=0;resizeLast=0;collapsible=1;marginBottom=0;" vertex="1" parent="1">
          <mxGeometry x="480" y="370" width="160" height="34" as="geometry" />
        </mxCell>
        <mxCell id="fPjhyMpD60TTYnaPJ0RA-34" value="" style="line;strokeWidth=1;fillColor=none;align=left;verticalAlign=middle;spacingTop=-1;spacingLeft=3;spacingRight=3;rotatable=0;labelPosition=right;points=[];portConstraint=eastwest;strokeColor=inherit;" vertex="1" parent="fPjhyMpD60TTYnaPJ0RA-32">
          <mxGeometry y="26" width="160" height="8" as="geometry" />
        </mxCell>
        <mxCell id="fPjhyMpD60TTYnaPJ0RA-54" value="Departman" style="swimlane;fontStyle=1;align=center;verticalAlign=top;childLayout=stackLayout;horizontal=1;startSize=26;horizontalStack=0;resizeParent=1;resizeParentMax=0;resizeLast=0;collapsible=1;marginBottom=0;" vertex="1" parent="1">
          <mxGeometry x="480" y="230" width="160" height="34" as="geometry">
            <mxRectangle x="460" y="160" width="120" height="30" as="alternateBounds" />
          </mxGeometry>
        </mxCell>
        <mxCell id="fPjhyMpD60TTYnaPJ0RA-55" value="" style="line;strokeWidth=1;fillColor=none;align=left;verticalAlign=middle;spacingTop=-1;spacingLeft=3;spacingRight=3;rotatable=0;labelPosition=right;points=[];portConstraint=eastwest;strokeColor=inherit;" vertex="1" parent="fPjhyMpD60TTYnaPJ0RA-54">
          <mxGeometry y="26" width="160" height="8" as="geometry" />
        </mxCell>
        <mxCell id="fPjhyMpD60TTYnaPJ0RA-61" value="Memur" style="swimlane;fontStyle=1;align=center;verticalAlign=top;childLayout=stackLayout;horizontal=1;startSize=20;horizontalStack=0;resizeParent=1;resizeParentMax=0;resizeLast=0;collapsible=1;marginBottom=0;" vertex="1" parent="1">
          <mxGeometry x="780" y="312" width="90" height="28" as="geometry" />
        </mxCell>
        <mxCell id="fPjhyMpD60TTYnaPJ0RA-62" value="" style="line;strokeWidth=1;fillColor=none;align=left;verticalAlign=middle;spacingTop=-1;spacingLeft=3;spacingRight=3;rotatable=0;labelPosition=right;points=[];portConstraint=eastwest;strokeColor=inherit;" vertex="1" parent="fPjhyMpD60TTYnaPJ0RA-61">
          <mxGeometry y="20" width="90" height="8" as="geometry" />
        </mxCell>
        <mxCell id="fPjhyMpD60TTYnaPJ0RA-63" value="Profesör" style="swimlane;fontStyle=1;align=center;verticalAlign=top;childLayout=stackLayout;horizontal=1;startSize=20;horizontalStack=0;resizeParent=1;resizeParentMax=0;resizeLast=0;collapsible=1;marginBottom=0;" vertex="1" parent="1">
          <mxGeometry x="670" y="312" width="90" height="28" as="geometry" />
        </mxCell>
        <mxCell id="fPjhyMpD60TTYnaPJ0RA-64" value="" style="line;strokeWidth=1;fillColor=none;align=left;verticalAlign=middle;spacingTop=-1;spacingLeft=3;spacingRight=3;rotatable=0;labelPosition=right;points=[];portConstraint=eastwest;strokeColor=inherit;" vertex="1" parent="fPjhyMpD60TTYnaPJ0RA-63">
          <mxGeometry y="20" width="90" height="8" as="geometry" />
        </mxCell>
        <mxCell id="fPjhyMpD60TTYnaPJ0RA-68" value="" style="endArrow=block;endSize=8;endFill=0;html=1;rounded=0;fontSize=8;entryX=0.5;entryY=1;entryDx=0;entryDy=0;" edge="1" parent="1" source="fPjhyMpD60TTYnaPJ0RA-63" target="fPjhyMpD60TTYnaPJ0RA-2">
          <mxGeometry x="-0.5312" y="-1" width="160" relative="1" as="geometry">
            <mxPoint x="710" y="310" as="sourcePoint" />
            <mxPoint x="715" y="260" as="targetPoint" />
            <mxPoint as="offset" />
          </mxGeometry>
        </mxCell>
        <mxCell id="fPjhyMpD60TTYnaPJ0RA-75" value="" style="endArrow=block;endSize=8;endFill=0;html=1;rounded=0;fontSize=8;exitX=0.335;exitY=0.025;exitDx=0;exitDy=0;exitPerimeter=0;entryX=0.75;entryY=1;entryDx=0;entryDy=0;" edge="1" parent="1" source="fPjhyMpD60TTYnaPJ0RA-61" target="fPjhyMpD60TTYnaPJ0RA-2">
          <mxGeometry x="-0.5539" y="-7" width="160" relative="1" as="geometry">
            <mxPoint x="810" y="310" as="sourcePoint" />
            <mxPoint x="810" y="260" as="targetPoint" />
            <mxPoint as="offset" />
          </mxGeometry>
        </mxCell>
        <mxCell id="fPjhyMpD60TTYnaPJ0RA-91" value="" style="endArrow=close;html=1;endSize=8;startArrow=diamondThin;startSize=8;startFill=2;edgeStyle=orthogonalEdgeStyle;rounded=0;exitX=0.5;exitY=1;exitDx=0;exitDy=0;entryX=0.5;entryY=0;entryDx=0;entryDy=0;" edge="1" parent="1" source="fPjhyMpD60TTYnaPJ0RA-54" target="fPjhyMpD60TTYnaPJ0RA-32">
          <mxGeometry relative="1" as="geometry">
            <mxPoint x="190" y="100" as="sourcePoint" />
            <mxPoint x="530" y="280" as="targetPoint" />
          </mxGeometry>
        </mxCell>
        <mxCell id="fPjhyMpD60TTYnaPJ0RA-92" value="&lt;font style=&quot;font-size: 18px;&quot;&gt;1..*&lt;/font&gt;" style="edgeLabel;resizable=0;html=1;align=left;verticalAlign=top;fontSize=24;" connectable="0" vertex="1" parent="fPjhyMpD60TTYnaPJ0RA-91">
          <mxGeometry x="-1" relative="1" as="geometry">
            <mxPoint x="-40" y="-4" as="offset" />
          </mxGeometry>
        </mxCell>
        <mxCell id="fPjhyMpD60TTYnaPJ0RA-93" value="&lt;font style=&quot;font-size: 18px;&quot;&gt;1..*&lt;/font&gt;" style="edgeLabel;resizable=0;html=1;align=right;verticalAlign=top;fontSize=24;" connectable="0" vertex="1" parent="fPjhyMpD60TTYnaPJ0RA-91">
          <mxGeometry x="1" relative="1" as="geometry">
            <mxPoint x="-10" y="-40" as="offset" />
          </mxGeometry>
        </mxCell>
        <mxCell id="fPjhyMpD60TTYnaPJ0RA-94" value="" style="endArrow=close;html=1;endSize=8;startArrow=diamondThin;startSize=8;startFill=2;edgeStyle=orthogonalEdgeStyle;rounded=0;entryX=0.371;entryY=0.021;entryDx=0;entryDy=0;entryPerimeter=0;exitX=1;exitY=0.5;exitDx=0;exitDy=0;" edge="1" parent="1" source="fPjhyMpD60TTYnaPJ0RA-14" target="fPjhyMpD60TTYnaPJ0RA-2">
          <mxGeometry relative="1" as="geometry">
            <mxPoint x="570" y="146.74" as="sourcePoint" />
            <mxPoint x="730" y="180" as="targetPoint" />
          </mxGeometry>
        </mxCell>
        <mxCell id="fPjhyMpD60TTYnaPJ0RA-96" value="&lt;font style=&quot;font-size: 18px;&quot;&gt;*&lt;/font&gt;" style="edgeLabel;resizable=0;html=1;align=right;verticalAlign=top;fontSize=24;" connectable="0" vertex="1" parent="fPjhyMpD60TTYnaPJ0RA-94">
          <mxGeometry x="1" relative="1" as="geometry">
            <mxPoint x="-10" y="-40" as="offset" />
          </mxGeometry>
        </mxCell>
        <mxCell id="fPjhyMpD60TTYnaPJ0RA-97" value="" style="endArrow=close;html=1;endSize=8;startArrow=diamondThin;startSize=8;startFill=2;edgeStyle=orthogonalEdgeStyle;rounded=0;entryX=0.5;entryY=0;entryDx=0;entryDy=0;exitX=0;exitY=0.5;exitDx=0;exitDy=0;" edge="1" parent="1" source="fPjhyMpD60TTYnaPJ0RA-14" target="fPjhyMpD60TTYnaPJ0RA-10">
          <mxGeometry relative="1" as="geometry">
            <mxPoint x="20" y="146.41" as="sourcePoint" />
            <mxPoint x="179.3599999999999" y="229.99800000000002" as="targetPoint" />
          </mxGeometry>
        </mxCell>
        <mxCell id="fPjhyMpD60TTYnaPJ0RA-98" value="&lt;font style=&quot;font-size: 18px;&quot;&gt;*&lt;/font&gt;" style="edgeLabel;resizable=0;html=1;align=right;verticalAlign=top;fontSize=24;" connectable="0" vertex="1" parent="fPjhyMpD60TTYnaPJ0RA-97">
          <mxGeometry x="1" relative="1" as="geometry">
            <mxPoint x="-10" y="-40" as="offset" />
          </mxGeometry>
        </mxCell>
        <mxCell id="fPjhyMpD60TTYnaPJ0RA-99" value="" style="endArrow=close;html=1;endSize=8;startArrow=diamondThin;startSize=8;startFill=2;edgeStyle=orthogonalEdgeStyle;rounded=0;exitX=0.25;exitY=1;exitDx=0;exitDy=0;entryX=0.75;entryY=0;entryDx=0;entryDy=0;" edge="1" parent="1" source="fPjhyMpD60TTYnaPJ0RA-14" target="fPjhyMpD60TTYnaPJ0RA-6">
          <mxGeometry relative="1" as="geometry">
            <mxPoint x="390" y="166" as="sourcePoint" />
            <mxPoint x="390.02" y="230" as="targetPoint" />
          </mxGeometry>
        </mxCell>
        <mxCell id="fPjhyMpD60TTYnaPJ0RA-100" value="&lt;font style=&quot;font-size: 18px;&quot;&gt;*&lt;/font&gt;" style="edgeLabel;resizable=0;html=1;align=right;verticalAlign=top;fontSize=24;" connectable="0" vertex="1" parent="fPjhyMpD60TTYnaPJ0RA-99">
          <mxGeometry x="1" relative="1" as="geometry">
            <mxPoint x="-10" y="-40" as="offset" />
          </mxGeometry>
        </mxCell>
        <mxCell id="fPjhyMpD60TTYnaPJ0RA-101" value="" style="endArrow=close;html=1;endSize=8;startArrow=diamondThin;startSize=8;startFill=2;edgeStyle=orthogonalEdgeStyle;rounded=0;exitX=0.75;exitY=1;exitDx=0;exitDy=0;entryX=0.25;entryY=0;entryDx=0;entryDy=0;" edge="1" parent="1" source="fPjhyMpD60TTYnaPJ0RA-14" target="fPjhyMpD60TTYnaPJ0RA-54">
          <mxGeometry relative="1" as="geometry">
            <mxPoint x="429.9999999999998" y="174" as="sourcePoint" />
            <mxPoint x="430" y="240" as="targetPoint" />
          </mxGeometry>
        </mxCell>
        <mxCell id="fPjhyMpD60TTYnaPJ0RA-102" value="&lt;font style=&quot;font-size: 18px;&quot;&gt;*&lt;/font&gt;" style="edgeLabel;resizable=0;html=1;align=right;verticalAlign=top;fontSize=24;" connectable="0" vertex="1" parent="fPjhyMpD60TTYnaPJ0RA-101">
          <mxGeometry x="1" relative="1" as="geometry">
            <mxPoint x="-10" y="-40" as="offset" />
          </mxGeometry>
        </mxCell>
        <mxCell id="fPjhyMpD60TTYnaPJ0RA-113" style="edgeStyle=orthogonalEdgeStyle;rounded=0;orthogonalLoop=1;jettySize=auto;html=1;exitX=1;exitY=0.5;exitDx=0;exitDy=0;fontSize=18;" edge="1" parent="1" source="fPjhyMpD60TTYnaPJ0RA-103">
          <mxGeometry relative="1" as="geometry">
            <mxPoint x="990.2" y="244" as="targetPoint" />
          </mxGeometry>
        </mxCell>
        <mxCell id="fPjhyMpD60TTYnaPJ0RA-103" value="Ofis" style="swimlane;fontStyle=1;align=center;verticalAlign=top;childLayout=stackLayout;horizontal=1;startSize=20;horizontalStack=0;resizeParent=1;resizeParentMax=0;resizeLast=0;collapsible=1;marginBottom=0;" vertex="1" parent="1">
          <mxGeometry x="940" y="230" width="90" height="28" as="geometry" />
        </mxCell>
        <mxCell id="fPjhyMpD60TTYnaPJ0RA-104" value="" style="line;strokeWidth=1;fillColor=none;align=left;verticalAlign=middle;spacingTop=-1;spacingLeft=3;spacingRight=3;rotatable=0;labelPosition=right;points=[];portConstraint=eastwest;strokeColor=inherit;" vertex="1" parent="fPjhyMpD60TTYnaPJ0RA-103">
          <mxGeometry y="20" width="90" height="8" as="geometry" />
        </mxCell>
        <mxCell id="fPjhyMpD60TTYnaPJ0RA-110" value="&lt;font style=&quot;font-size: 18px;&quot;&gt;çalışır&lt;/font&gt;" style="endArrow=open;endFill=1;endSize=12;html=1;rounded=0;fontSize=8;exitX=1;exitY=0.5;exitDx=0;exitDy=0;entryX=0;entryY=0.5;entryDx=0;entryDy=0;" edge="1" parent="1" source="fPjhyMpD60TTYnaPJ0RA-2" target="fPjhyMpD60TTYnaPJ0RA-103">
          <mxGeometry width="160" relative="1" as="geometry">
            <mxPoint x="810" y="260" as="sourcePoint" />
            <mxPoint x="970" y="260" as="targetPoint" />
          </mxGeometry>
        </mxCell>
        <mxCell id="fPjhyMpD60TTYnaPJ0RA-111" value="Üniversite Yönetim Sistemi Class Diyagram" style="text;strokeColor=none;fillColor=none;html=1;fontSize=24;fontStyle=1;verticalAlign=middle;align=center;" vertex="1" parent="1">
          <mxGeometry x="320" y="40" width="100" height="40" as="geometry" />
        </mxCell>
      </root>
    </mxGraphModel>
  </diagram>
</mxfile>
